<mxfile host="app.diagrams.net" modified="2021-10-25T20:45:16.482Z" agent="5.0 (Windows)" etag="229RQkozXpyrM_XIk4ZZ" version="15.5.9" type="github" pages="3">
  <diagram id="C5RBs43oDa-KdzZeNtuy" name="Overview">
    <mxGraphModel dx="2062" dy="1140" grid="1" gridSize="10" guides="1" tooltips="1" connect="1" arrows="1" fold="1" page="1" pageScale="1" pageWidth="827" pageHeight="1169" math="0" shadow="0">
      <root>
        <mxCell id="WIyWlLk6GJQsqaUBKTNV-0" />
        <mxCell id="WIyWlLk6GJQsqaUBKTNV-1" parent="WIyWlLk6GJQsqaUBKTNV-0" />
        <mxCell id="WIyWlLk6GJQsqaUBKTNV-2" value="" style="rounded=0;html=1;jettySize=auto;orthogonalLoop=1;fontSize=11;endArrow=block;endFill=0;endSize=8;strokeWidth=1;shadow=0;labelBackgroundColor=none;edgeStyle=orthogonalEdgeStyle;entryX=0.5;entryY=0;entryDx=0;entryDy=0;" parent="WIyWlLk6GJQsqaUBKTNV-1" source="WIyWlLk6GJQsqaUBKTNV-3" target="qLdOe8KvhBBSZUDHnRQA-1" edge="1">
          <mxGeometry relative="1" as="geometry">
            <mxPoint x="220" y="170" as="targetPoint" />
          </mxGeometry>
        </mxCell>
        <mxCell id="WIyWlLk6GJQsqaUBKTNV-3" value="&lt;div&gt;Queue for game&lt;/div&gt;" style="rounded=1;whiteSpace=wrap;html=1;fontSize=12;glass=0;strokeWidth=1;shadow=0;" parent="WIyWlLk6GJQsqaUBKTNV-1" vertex="1">
          <mxGeometry x="160" y="80" width="120" height="40" as="geometry" />
        </mxCell>
        <mxCell id="qLdOe8KvhBBSZUDHnRQA-4" style="edgeStyle=orthogonalEdgeStyle;rounded=0;orthogonalLoop=1;jettySize=auto;html=1;" parent="WIyWlLk6GJQsqaUBKTNV-1" source="qLdOe8KvhBBSZUDHnRQA-1" target="qLdOe8KvhBBSZUDHnRQA-2" edge="1">
          <mxGeometry relative="1" as="geometry" />
        </mxCell>
        <mxCell id="qLdOe8KvhBBSZUDHnRQA-1" value="Select Champion" style="rounded=1;whiteSpace=wrap;html=1;" parent="WIyWlLk6GJQsqaUBKTNV-1" vertex="1">
          <mxGeometry x="160" y="160" width="120" height="40" as="geometry" />
        </mxCell>
        <mxCell id="qLdOe8KvhBBSZUDHnRQA-5" style="edgeStyle=orthogonalEdgeStyle;rounded=0;orthogonalLoop=1;jettySize=auto;html=1;" parent="WIyWlLk6GJQsqaUBKTNV-1" source="qLdOe8KvhBBSZUDHnRQA-2" target="qLdOe8KvhBBSZUDHnRQA-3" edge="1">
          <mxGeometry relative="1" as="geometry" />
        </mxCell>
        <mxCell id="qLdOe8KvhBBSZUDHnRQA-9" style="edgeStyle=orthogonalEdgeStyle;rounded=0;orthogonalLoop=1;jettySize=auto;html=1;" parent="WIyWlLk6GJQsqaUBKTNV-1" source="qLdOe8KvhBBSZUDHnRQA-2" target="qLdOe8KvhBBSZUDHnRQA-7" edge="1">
          <mxGeometry relative="1" as="geometry" />
        </mxCell>
        <mxCell id="qLdOe8KvhBBSZUDHnRQA-2" value="&lt;div&gt;Draft phase&lt;/div&gt;" style="rounded=1;whiteSpace=wrap;html=1;" parent="WIyWlLk6GJQsqaUBKTNV-1" vertex="1">
          <mxGeometry x="160" y="240" width="120" height="40" as="geometry" />
        </mxCell>
        <mxCell id="qLdOe8KvhBBSZUDHnRQA-6" style="edgeStyle=orthogonalEdgeStyle;rounded=0;orthogonalLoop=1;jettySize=auto;html=1;" parent="WIyWlLk6GJQsqaUBKTNV-1" source="qLdOe8KvhBBSZUDHnRQA-3" target="qLdOe8KvhBBSZUDHnRQA-2" edge="1">
          <mxGeometry relative="1" as="geometry" />
        </mxCell>
        <mxCell id="qLdOe8KvhBBSZUDHnRQA-8" style="edgeStyle=orthogonalEdgeStyle;rounded=0;orthogonalLoop=1;jettySize=auto;html=1;" parent="WIyWlLk6GJQsqaUBKTNV-1" source="qLdOe8KvhBBSZUDHnRQA-3" target="qLdOe8KvhBBSZUDHnRQA-7" edge="1">
          <mxGeometry relative="1" as="geometry" />
        </mxCell>
        <mxCell id="qLdOe8KvhBBSZUDHnRQA-3" value="Combat phase" style="rounded=1;whiteSpace=wrap;html=1;" parent="WIyWlLk6GJQsqaUBKTNV-1" vertex="1">
          <mxGeometry x="160" y="320" width="120" height="40" as="geometry" />
        </mxCell>
        <mxCell id="qLdOe8KvhBBSZUDHnRQA-7" value="&lt;div&gt;Outcome&lt;/div&gt;" style="rounded=1;whiteSpace=wrap;html=1;" parent="WIyWlLk6GJQsqaUBKTNV-1" vertex="1">
          <mxGeometry x="320" y="280" width="120" height="40" as="geometry" />
        </mxCell>
      </root>
    </mxGraphModel>
  </diagram>
  <diagram id="hHnxrrg-D_GkuOQ3-bpd" name="Select champ">
    <mxGraphModel dx="2062" dy="1140" grid="1" gridSize="10" guides="1" tooltips="1" connect="1" arrows="1" fold="1" page="1" pageScale="1" pageWidth="827" pageHeight="1169" math="0" shadow="0">
      <root>
        <mxCell id="s-VePVXVK8DlF9YkH1JG-0" />
        <mxCell id="s-VePVXVK8DlF9YkH1JG-1" parent="s-VePVXVK8DlF9YkH1JG-0" />
        <mxCell id="BHHyb2freUaGSpDRdIsv-4" value="&lt;div&gt;&lt;br&gt;&lt;/div&gt;&lt;div&gt;&lt;br&gt;&lt;/div&gt;" style="edgeStyle=orthogonalEdgeStyle;rounded=0;orthogonalLoop=1;jettySize=auto;html=1;" edge="1" parent="s-VePVXVK8DlF9YkH1JG-1" source="BHHyb2freUaGSpDRdIsv-0" target="BHHyb2freUaGSpDRdIsv-3">
          <mxGeometry relative="1" as="geometry" />
        </mxCell>
        <mxCell id="BHHyb2freUaGSpDRdIsv-6" value="" style="edgeStyle=orthogonalEdgeStyle;rounded=0;orthogonalLoop=1;jettySize=auto;html=1;entryX=0.5;entryY=0;entryDx=0;entryDy=0;" edge="1" parent="s-VePVXVK8DlF9YkH1JG-1" source="BHHyb2freUaGSpDRdIsv-0" target="BHHyb2freUaGSpDRdIsv-1">
          <mxGeometry relative="1" as="geometry" />
        </mxCell>
        <mxCell id="BHHyb2freUaGSpDRdIsv-9" style="edgeStyle=orthogonalEdgeStyle;rounded=0;orthogonalLoop=1;jettySize=auto;html=1;" edge="1" parent="s-VePVXVK8DlF9YkH1JG-1" source="BHHyb2freUaGSpDRdIsv-0" target="BHHyb2freUaGSpDRdIsv-2">
          <mxGeometry relative="1" as="geometry">
            <Array as="points">
              <mxPoint x="400" y="290" />
              <mxPoint x="400" y="290" />
            </Array>
          </mxGeometry>
        </mxCell>
        <mxCell id="BHHyb2freUaGSpDRdIsv-0" value="&lt;div&gt;Player&lt;/div&gt;&lt;div&gt;&lt;br&gt;&lt;/div&gt;" style="shape=umlActor;verticalLabelPosition=bottom;verticalAlign=top;html=1;outlineConnect=0;" vertex="1" parent="s-VePVXVK8DlF9YkH1JG-1">
          <mxGeometry x="385" y="180" width="30" height="60" as="geometry" />
        </mxCell>
        <mxCell id="BHHyb2freUaGSpDRdIsv-1" value="&lt;div&gt;Champion C&lt;/div&gt;" style="rounded=1;whiteSpace=wrap;html=1;" vertex="1" parent="s-VePVXVK8DlF9YkH1JG-1">
          <mxGeometry x="540" y="380" width="120" height="60" as="geometry" />
        </mxCell>
        <mxCell id="BHHyb2freUaGSpDRdIsv-2" value="Champion B" style="rounded=1;whiteSpace=wrap;html=1;" vertex="1" parent="s-VePVXVK8DlF9YkH1JG-1">
          <mxGeometry x="340" y="380" width="120" height="60" as="geometry" />
        </mxCell>
        <mxCell id="BHHyb2freUaGSpDRdIsv-3" value="&lt;div&gt;Champion A&lt;/div&gt;" style="rounded=1;whiteSpace=wrap;html=1;" vertex="1" parent="s-VePVXVK8DlF9YkH1JG-1">
          <mxGeometry x="140" y="380" width="120" height="60" as="geometry" />
        </mxCell>
        <mxCell id="BHHyb2freUaGSpDRdIsv-7" value="Player chooses one out of three champions. All players choose from the same pool, thus the same champion cannot appear in two selections at once" style="rounded=0;whiteSpace=wrap;html=1;" vertex="1" parent="s-VePVXVK8DlF9YkH1JG-1">
          <mxGeometry x="260" y="90" width="240" height="60" as="geometry" />
        </mxCell>
        <mxCell id="BHHyb2freUaGSpDRdIsv-11" value="&lt;div&gt;Ability A - manipulates Mana&lt;/div&gt;" style="shape=cube;whiteSpace=wrap;html=1;boundedLbl=1;backgroundOutline=1;darkOpacity=0.05;darkOpacity2=0.1;" vertex="1" parent="s-VePVXVK8DlF9YkH1JG-1">
          <mxGeometry x="140" y="480" width="120" height="80" as="geometry" />
        </mxCell>
        <mxCell id="BHHyb2freUaGSpDRdIsv-12" value="&lt;div&gt;Ability C - manipulates Aspect&lt;/div&gt;" style="shape=cube;whiteSpace=wrap;html=1;boundedLbl=1;backgroundOutline=1;darkOpacity=0.05;darkOpacity2=0.1;" vertex="1" parent="s-VePVXVK8DlF9YkH1JG-1">
          <mxGeometry x="540" y="480" width="120" height="80" as="geometry" />
        </mxCell>
        <mxCell id="BHHyb2freUaGSpDRdIsv-13" value="Ability B - manipulates Keyword" style="shape=cube;whiteSpace=wrap;html=1;boundedLbl=1;backgroundOutline=1;darkOpacity=0.05;darkOpacity2=0.1;" vertex="1" parent="s-VePVXVK8DlF9YkH1JG-1">
          <mxGeometry x="340" y="480" width="120" height="80" as="geometry" />
        </mxCell>
      </root>
    </mxGraphModel>
  </diagram>
  <diagram id="CzlHGnzzANuzK147afsX" name="Draft">
    <mxGraphModel dx="2062" dy="1140" grid="1" gridSize="10" guides="1" tooltips="1" connect="1" arrows="1" fold="1" page="1" pageScale="1" pageWidth="827" pageHeight="1169" math="0" shadow="0">
      <root>
        <mxCell id="O0j5La8CQBhtPUhR0tWt-0" />
        <mxCell id="O0j5La8CQBhtPUhR0tWt-1" parent="O0j5La8CQBhtPUhR0tWt-0" />
        <mxCell id="O0j5La8CQBhtPUhR0tWt-2" value="&lt;div&gt;Player&lt;/div&gt;" style="shape=umlActor;verticalLabelPosition=bottom;verticalAlign=top;html=1;outlineConnect=0;" vertex="1" parent="O0j5La8CQBhtPUhR0tWt-1">
          <mxGeometry x="384" y="100" width="30" height="60" as="geometry" />
        </mxCell>
        <mxCell id="O0j5La8CQBhtPUhR0tWt-3" value="Hand" style="swimlane;startSize=0;" vertex="1" parent="O0j5La8CQBhtPUhR0tWt-1">
          <mxGeometry x="40" y="80" width="200" height="200" as="geometry" />
        </mxCell>
        <mxCell id="O0j5La8CQBhtPUhR0tWt-16" value="" style="shape=card;whiteSpace=wrap;html=1;" vertex="1" parent="O0j5La8CQBhtPUhR0tWt-3">
          <mxGeometry x="10" y="10" width="80" height="100" as="geometry" />
        </mxCell>
        <mxCell id="O0j5La8CQBhtPUhR0tWt-17" value="" style="shape=card;whiteSpace=wrap;html=1;" vertex="1" parent="O0j5La8CQBhtPUhR0tWt-3">
          <mxGeometry x="20" y="20" width="80" height="100" as="geometry" />
        </mxCell>
        <mxCell id="O0j5La8CQBhtPUhR0tWt-4" value="Card pool" style="swimlane;startSize=0;" vertex="1" parent="O0j5La8CQBhtPUhR0tWt-1">
          <mxGeometry x="600" y="80" width="200" height="200" as="geometry" />
        </mxCell>
        <mxCell id="O0j5La8CQBhtPUhR0tWt-6" value="" style="shape=card;whiteSpace=wrap;html=1;" vertex="1" parent="O0j5La8CQBhtPUhR0tWt-4">
          <mxGeometry x="20" y="30" width="80" height="100" as="geometry" />
        </mxCell>
        <mxCell id="O0j5La8CQBhtPUhR0tWt-7" value="" style="shape=card;whiteSpace=wrap;html=1;" vertex="1" parent="O0j5La8CQBhtPUhR0tWt-4">
          <mxGeometry x="10" y="10" width="80" height="100" as="geometry" />
        </mxCell>
        <mxCell id="O0j5La8CQBhtPUhR0tWt-8" value="" style="shape=card;whiteSpace=wrap;html=1;" vertex="1" parent="O0j5La8CQBhtPUhR0tWt-4">
          <mxGeometry x="20" y="20" width="80" height="100" as="geometry" />
        </mxCell>
        <mxCell id="O0j5La8CQBhtPUhR0tWt-9" value="" style="shape=card;whiteSpace=wrap;html=1;" vertex="1" parent="O0j5La8CQBhtPUhR0tWt-4">
          <mxGeometry x="30" y="30" width="80" height="100" as="geometry" />
        </mxCell>
        <mxCell id="O0j5La8CQBhtPUhR0tWt-10" value="" style="shape=card;whiteSpace=wrap;html=1;" vertex="1" parent="O0j5La8CQBhtPUhR0tWt-4">
          <mxGeometry x="40" y="40" width="80" height="100" as="geometry" />
        </mxCell>
        <mxCell id="O0j5La8CQBhtPUhR0tWt-11" value="" style="shape=card;whiteSpace=wrap;html=1;" vertex="1" parent="O0j5La8CQBhtPUhR0tWt-4">
          <mxGeometry x="50" y="50" width="80" height="100" as="geometry" />
        </mxCell>
        <mxCell id="O0j5La8CQBhtPUhR0tWt-12" value="" style="shape=card;whiteSpace=wrap;html=1;" vertex="1" parent="O0j5La8CQBhtPUhR0tWt-4">
          <mxGeometry x="60" y="60" width="80" height="100" as="geometry" />
        </mxCell>
        <mxCell id="O0j5La8CQBhtPUhR0tWt-13" value="" style="shape=card;whiteSpace=wrap;html=1;" vertex="1" parent="O0j5La8CQBhtPUhR0tWt-4">
          <mxGeometry x="70" y="70" width="80" height="100" as="geometry" />
        </mxCell>
        <mxCell id="O0j5La8CQBhtPUhR0tWt-14" value="" style="shape=card;whiteSpace=wrap;html=1;" vertex="1" parent="O0j5La8CQBhtPUhR0tWt-4">
          <mxGeometry x="80" y="80" width="80" height="100" as="geometry" />
        </mxCell>
        <mxCell id="O0j5La8CQBhtPUhR0tWt-15" value="" style="shape=card;whiteSpace=wrap;html=1;" vertex="1" parent="O0j5La8CQBhtPUhR0tWt-4">
          <mxGeometry x="90" y="90" width="80" height="100" as="geometry" />
        </mxCell>
        <mxCell id="O0j5La8CQBhtPUhR0tWt-5" value="Board" style="swimlane;startSize=0;" vertex="1" parent="O0j5La8CQBhtPUhR0tWt-1">
          <mxGeometry x="299" y="320" width="200" height="200" as="geometry" />
        </mxCell>
        <mxCell id="O0j5La8CQBhtPUhR0tWt-21" value="" style="shape=card;whiteSpace=wrap;html=1;" vertex="1" parent="O0j5La8CQBhtPUhR0tWt-5">
          <mxGeometry x="21" y="20" width="70" height="70" as="geometry" />
        </mxCell>
        <mxCell id="O0j5La8CQBhtPUhR0tWt-25" value="" style="shape=card;whiteSpace=wrap;html=1;" vertex="1" parent="O0j5La8CQBhtPUhR0tWt-5">
          <mxGeometry x="21" y="110" width="70" height="70" as="geometry" />
        </mxCell>
        <mxCell id="O0j5La8CQBhtPUhR0tWt-24" value="" style="shape=card;whiteSpace=wrap;html=1;" vertex="1" parent="O0j5La8CQBhtPUhR0tWt-5">
          <mxGeometry x="115" y="110" width="70" height="70" as="geometry" />
        </mxCell>
        <mxCell id="O0j5La8CQBhtPUhR0tWt-23" value="" style="shape=card;whiteSpace=wrap;html=1;" vertex="1" parent="O0j5La8CQBhtPUhR0tWt-5">
          <mxGeometry x="115" y="20" width="70" height="70" as="geometry" />
        </mxCell>
        <mxCell id="O0j5La8CQBhtPUhR0tWt-26" value="Freeze" style="shape=step;perimeter=stepPerimeter;whiteSpace=wrap;html=1;fixedSize=1;" vertex="1" parent="O0j5La8CQBhtPUhR0tWt-1">
          <mxGeometry x="610" y="860" width="120" height="80" as="geometry" />
        </mxCell>
        <mxCell id="O0j5La8CQBhtPUhR0tWt-33" value="&lt;div&gt;No&lt;/div&gt;" style="edgeStyle=orthogonalEdgeStyle;rounded=0;orthogonalLoop=1;jettySize=auto;html=1;" edge="1" parent="O0j5La8CQBhtPUhR0tWt-1" source="O0j5La8CQBhtPUhR0tWt-27" target="O0j5La8CQBhtPUhR0tWt-34">
          <mxGeometry relative="1" as="geometry">
            <mxPoint x="160" y="650" as="targetPoint" />
          </mxGeometry>
        </mxCell>
        <mxCell id="O0j5La8CQBhtPUhR0tWt-37" value="&lt;div&gt;Yes&lt;/div&gt;" style="edgeStyle=orthogonalEdgeStyle;rounded=0;orthogonalLoop=1;jettySize=auto;html=1;" edge="1" parent="O0j5La8CQBhtPUhR0tWt-1" source="O0j5La8CQBhtPUhR0tWt-27" target="O0j5La8CQBhtPUhR0tWt-36">
          <mxGeometry relative="1" as="geometry">
            <Array as="points">
              <mxPoint x="259" y="710" />
              <mxPoint x="259" y="710" />
            </Array>
          </mxGeometry>
        </mxCell>
        <mxCell id="O0j5La8CQBhtPUhR0tWt-27" value="Check if room in hand" style="shape=step;perimeter=stepPerimeter;whiteSpace=wrap;html=1;fixedSize=1;" vertex="1" parent="O0j5La8CQBhtPUhR0tWt-1">
          <mxGeometry x="199" y="610" width="120" height="80" as="geometry" />
        </mxCell>
        <mxCell id="O0j5La8CQBhtPUhR0tWt-28" value="&lt;div&gt;Reroll&lt;/div&gt;" style="shape=step;perimeter=stepPerimeter;whiteSpace=wrap;html=1;fixedSize=1;" vertex="1" parent="O0j5La8CQBhtPUhR0tWt-1">
          <mxGeometry x="410" y="830" width="120" height="80" as="geometry" />
        </mxCell>
        <mxCell id="O0j5La8CQBhtPUhR0tWt-42" value="" style="edgeStyle=orthogonalEdgeStyle;rounded=0;orthogonalLoop=1;jettySize=auto;html=1;" edge="1" parent="O0j5La8CQBhtPUhR0tWt-1" source="O0j5La8CQBhtPUhR0tWt-29" target="O0j5La8CQBhtPUhR0tWt-41">
          <mxGeometry relative="1" as="geometry" />
        </mxCell>
        <mxCell id="O0j5La8CQBhtPUhR0tWt-29" value="&lt;div&gt;Reroll&lt;/div&gt;" style="shape=process;whiteSpace=wrap;html=1;backgroundOutline=1;" vertex="1" parent="O0j5La8CQBhtPUhR0tWt-1">
          <mxGeometry x="338" y="530" width="120" height="60" as="geometry" />
        </mxCell>
        <mxCell id="O0j5La8CQBhtPUhR0tWt-40" style="edgeStyle=orthogonalEdgeStyle;rounded=0;orthogonalLoop=1;jettySize=auto;html=1;" edge="1" parent="O0j5La8CQBhtPUhR0tWt-1" source="O0j5La8CQBhtPUhR0tWt-30" target="O0j5La8CQBhtPUhR0tWt-27">
          <mxGeometry relative="1" as="geometry" />
        </mxCell>
        <mxCell id="O0j5La8CQBhtPUhR0tWt-30" value="Buy" style="shape=process;whiteSpace=wrap;html=1;backgroundOutline=1;" vertex="1" parent="O0j5La8CQBhtPUhR0tWt-1">
          <mxGeometry x="199" y="530" width="120" height="60" as="geometry" />
        </mxCell>
        <mxCell id="O0j5La8CQBhtPUhR0tWt-31" value="Freeze" style="shape=process;whiteSpace=wrap;html=1;backgroundOutline=1;" vertex="1" parent="O0j5La8CQBhtPUhR0tWt-1">
          <mxGeometry x="479" y="530" width="120" height="60" as="geometry" />
        </mxCell>
        <mxCell id="O0j5La8CQBhtPUhR0tWt-34" value="Reject" style="shape=step;perimeter=stepPerimeter;whiteSpace=wrap;html=1;fixedSize=1;" vertex="1" parent="O0j5La8CQBhtPUhR0tWt-1">
          <mxGeometry x="40" y="610" width="120" height="80" as="geometry" />
        </mxCell>
        <mxCell id="O0j5La8CQBhtPUhR0tWt-36" value="Add to hand" style="shape=step;perimeter=stepPerimeter;whiteSpace=wrap;html=1;fixedSize=1;" vertex="1" parent="O0j5La8CQBhtPUhR0tWt-1">
          <mxGeometry x="199" y="730" width="120" height="80" as="geometry" />
        </mxCell>
        <mxCell id="O0j5La8CQBhtPUhR0tWt-44" value="" style="edgeStyle=orthogonalEdgeStyle;rounded=0;orthogonalLoop=1;jettySize=auto;html=1;" edge="1" parent="O0j5La8CQBhtPUhR0tWt-1" source="O0j5La8CQBhtPUhR0tWt-41" target="O0j5La8CQBhtPUhR0tWt-43">
          <mxGeometry relative="1" as="geometry" />
        </mxCell>
        <mxCell id="O0j5La8CQBhtPUhR0tWt-41" value="Return old cards to deck" style="shape=step;perimeter=stepPerimeter;whiteSpace=wrap;html=1;fixedSize=1;" vertex="1" parent="O0j5La8CQBhtPUhR0tWt-1">
          <mxGeometry x="338" y="610" width="120" height="80" as="geometry" />
        </mxCell>
        <mxCell id="O0j5La8CQBhtPUhR0tWt-43" value="Reserve cards from deck" style="shape=step;perimeter=stepPerimeter;whiteSpace=wrap;html=1;fixedSize=1;" vertex="1" parent="O0j5La8CQBhtPUhR0tWt-1">
          <mxGeometry x="339" y="720" width="120" height="80" as="geometry" />
        </mxCell>
      </root>
    </mxGraphModel>
  </diagram>
</mxfile>
